<svg width="595" height="504" viewBox="0 0 595 504" fill="none" xmlns="http://www.w3.org/2000/svg">
<path d="M173.205 128L61 203.055L171.516 368.272L283.72 293.217L173.205 128Z" fill="#FDFCF3"/>
<path d="M225.742 285.396L224.468 293.277L168.69 285.242L169.963 277.361L225.742 285.396Z" fill="#F7F2C8"/>
<path d="M197.651 257.283L205.655 258.437L196.781 313.354L188.776 312.202L197.651 257.283Z" fill="#F7F2C8"/>
<path d="M146.274 187.482C146.354 187.602 135.109 195.263 121.162 204.592C107.21 213.924 95.8379 221.39 95.7579 221.27C95.6779 221.151 106.92 213.491 120.873 204.159C134.82 194.83 146.194 187.363 146.274 187.482Z" fill="#F7F2C8"/>
<path d="M187.538 177.124C187.618 177.244 168.919 189.891 145.779 205.368C122.63 220.851 103.806 233.302 103.726 233.182C103.646 233.063 122.341 220.418 145.489 204.935C168.629 189.458 187.458 177.005 187.538 177.124Z" fill="#F7F2C8"/>
<path d="M195.809 189.49C195.889 189.61 177.19 202.257 154.05 217.734C130.901 233.217 112.077 245.668 111.997 245.548C111.917 245.428 130.612 232.784 153.76 217.301C176.901 201.824 195.729 189.371 195.809 189.49Z" fill="#F7F2C8"/>
<path d="M204.08 201.857C204.16 201.977 185.461 214.624 162.321 230.101C139.172 245.584 120.348 258.035 120.268 257.915C120.188 257.796 138.883 245.151 162.031 229.668C185.172 214.19 204 201.737 204.08 201.857Z" fill="#F7F2C8"/>
<path d="M212.352 214.223C212.432 214.343 193.733 226.989 170.593 242.467C147.444 257.95 128.62 270.401 128.54 270.281C128.46 270.161 147.155 257.517 170.303 242.034C193.443 226.557 212.272 214.104 212.352 214.223Z" fill="#F7F2C8"/>
<path d="M571.665 285.393L487.573 209.358L375.613 333.181L459.706 409.216L571.665 285.393Z" fill="#FDFCF3"/>
<path d="M517.688 275.631C517.591 275.738 509.038 268.16 498.585 258.708C488.129 249.253 479.734 241.505 479.831 241.398C479.928 241.291 488.479 248.867 498.935 258.322C509.387 267.774 517.784 275.524 517.688 275.631Z" fill="#E0E0E0"/>
<path d="M534.568 307.121C534.471 307.228 520.332 294.599 502.99 278.918C485.642 263.231 471.662 250.433 471.759 250.326C471.855 250.219 485.992 262.845 503.34 278.532C520.681 294.213 534.664 307.015 534.568 307.121Z" fill="#E0E0E0"/>
<path d="M526.188 316.389C526.091 316.496 511.951 303.868 494.61 288.186C477.262 272.499 463.281 259.701 463.378 259.594C463.475 259.487 477.611 272.113 494.959 287.8C512.301 303.481 526.285 316.282 526.188 316.389Z" fill="#E0E0E0"/>
<path d="M517.808 325.656C517.711 325.763 503.572 313.134 486.23 297.453C468.882 281.766 454.902 268.968 454.998 268.861C455.094 268.754 469.232 281.38 486.579 297.067C503.92 312.748 517.904 325.55 517.808 325.656Z" fill="#E0E0E0"/>
<path d="M509.428 334.924C509.331 335.031 495.192 322.402 477.849 306.721C460.502 291.034 446.521 278.236 446.618 278.129C446.714 278.022 460.851 290.648 478.199 306.335C495.54 322.016 509.524 334.818 509.428 334.924Z" fill="#E0E0E0"/>
<path opacity="0.2" d="M310.421 0H307.838V43.983H310.421V0Z" fill="black"/>
<path d="M577.333 439.828C577.333 439.972 448.082 440.088 288.68 440.088C129.223 440.088 0 439.971 0 439.828C0 439.684 129.223 439.568 288.68 439.568C448.082 439.568 577.333 439.685 577.333 439.828Z" fill="#263238"/>
<path d="M31.952 377.201C35.333 377.32 38.507 379.155 40.737 381.7C42.967 384.244 44.334 387.443 45.209 390.712C46.901 397.035 45.861 404.498 44.058 410.79C37.212 408.343 32.991 401.043 31.082 397.204C28.064 391.138 26.295 378.342 31.952 377.201Z" fill="#51A769"/>
<path d="M53.908 418.454C51.748 415.353 51.697 411.04 53.405 407.668C55.112 404.296 58.393 401.865 62.006 400.755C63.677 400.242 65.615 400.026 67.068 400.997C68.427 401.904 69.014 403.685 68.838 405.309C68.663 406.933 67.84 408.42 66.869 409.734C63.54 414.241 59.491 417.991 53.908 418.454Z" fill="#51A769"/>
<path d="M54.661 439.584C54.628 439.589 54.524 439.12 54.355 438.27C54.172 437.332 53.935 436.121 53.651 434.666C53.111 431.636 52.254 427.327 52.902 422.563C53.525 417.82 55.413 413.766 57.392 411.345C58.366 410.12 59.299 409.253 59.989 408.72C60.323 408.439 60.617 408.267 60.804 408.135C60.995 408.009 61.1 407.95 61.11 407.963C61.185 408.048 59.51 409.08 57.659 411.549C55.784 413.978 53.987 417.963 53.373 422.626C52.735 427.293 53.525 431.563 53.982 434.609C54.227 436.139 54.424 437.379 54.538 438.24C54.651 439.101 54.693 439.58 54.661 439.584Z" fill="#263238"/>
<path d="M34.16 386.826C34.175 386.819 34.27 386.998 34.436 387.344C34.618 387.738 34.852 388.243 35.141 388.868C35.746 390.195 36.596 392.126 37.627 394.521C39.69 399.31 42.446 405.967 45.324 413.385C48.201 420.806 50.653 427.582 52.358 432.509C53.212 434.973 53.885 436.972 54.333 438.36C54.541 439.017 54.709 439.547 54.839 439.961C54.95 440.329 55 440.524 54.985 440.53C54.969 440.535 54.889 440.35 54.749 439.992C54.597 439.586 54.401 439.065 54.159 438.42C53.639 436.995 52.921 435.028 52.042 432.621C50.256 427.725 47.756 420.972 44.881 413.556C42.005 406.143 39.299 399.471 37.317 394.651C36.343 392.281 35.547 390.344 34.97 388.941C34.714 388.302 34.507 387.785 34.346 387.382C34.21 387.024 34.145 386.833 34.16 386.826Z" fill="#263238"/>
<path d="M46.535 425.604C42.498 418.735 34.96 414.051 27.013 413.475C24.989 413.328 22.555 413.669 21.653 415.486C20.749 417.306 21.958 419.461 23.337 420.954C29.073 427.167 38.777 429.333 46.611 426.149" fill="#51A769"/>
<path d="M30.095 418.892C30.097 418.859 30.547 418.878 31.362 418.939C31.77 418.967 32.269 419.003 32.84 419.11C33.41 419.216 34.073 419.278 34.779 419.475C35.49 419.649 36.274 419.823 37.086 420.116C37.914 420.361 38.764 420.715 39.657 421.093C41.421 421.894 43.292 422.942 45.074 424.305C46.843 425.684 48.337 427.225 49.552 428.736C50.136 429.511 50.694 430.245 51.129 430.991C51.61 431.708 51.967 432.429 52.302 433.079C52.661 433.718 52.873 434.35 53.108 434.881C53.345 435.412 53.493 435.89 53.611 436.282C53.854 437.063 53.972 437.497 53.941 437.506C53.84 437.541 53.353 435.793 52.005 433.233C51.655 432.6 51.286 431.9 50.798 431.203C50.356 430.477 49.794 429.764 49.211 429.009C47.997 427.538 46.522 426.035 44.785 424.681C43.035 423.343 41.204 422.302 39.477 421.492C38.603 421.109 37.771 420.746 36.96 420.489C36.166 420.185 35.396 419.995 34.699 419.801C31.894 419.091 30.084 418.995 30.095 418.892Z" fill="#263238"/>
<path d="M306.5 52L414.32 223.75H198.68L306.5 52Z" fill="url(#paint0_linear_2_846)"/>
<path d="M248.899 97.189H369.36C369.36 97.189 358.238 43.956 308.217 43.956C263.724 43.955 248.899 97.189 248.899 97.189Z" fill="#676767"/>
<path d="M310.421 0H307.838V43.983H310.421V0Z" fill="#676767"/>
<path d="M212.624 234.544L177.263 416.343L172.634 440.142L408.697 438.977C419.291 438.925 428.68 429.518 432.089 415.542L473.948 243.905C476.535 233.295 470.858 222.26 462.815 222.269L223.892 222.52C218.617 222.527 214.005 227.449 212.624 234.544Z" fill="#CDCDCD"/>
<g opacity="0.5">
<path d="M212.624 234.544L177.263 416.343L172.634 440.142L408.697 438.977C419.291 438.925 428.68 429.518 432.089 415.542L473.948 243.905C476.535 233.295 470.858 222.26 462.815 222.269L223.892 222.52C218.617 222.527 214.005 227.449 212.624 234.544Z" fill="black"/>
</g>
<path d="M386.053 404.026L361.059 202.618C360.035 194.365 353.461 188.209 345.699 188.235L290.893 188.414C286.837 188.427 282.948 190.152 280.066 193.215L254.041 220.88L101.615 221.675C92.3 221.724 85.144 230.537 86.379 240.44L109.585 426.593C110.612 434.834 117.174 440.982 124.925 440.966L390.572 440.441C420.159 441.054 422.983 432.316 422.983 432.316C389.076 439.831 386.056 404.049 386.053 404.026Z" fill="#CDCDCD"/>
<g opacity="0.5">
<path d="M284.735 358.358L276.486 368.595L203.227 311.605L211.477 301.368L284.735 358.358Z" fill="#676767"/>
<path d="M267.469 295.221L277.982 303.399L220.494 374.743L209.981 366.564L267.469 295.221Z" fill="#676767"/>
</g>
<path d="M141.96 490.84H144.88V467.24H141.96V465.08H150.44L163.92 486.4H164.12V467.24H161.2V465.08H169.64V467.24H166.72V493H162.68L147.68 469.28H147.48V490.84H150.4V493H141.96V490.84ZM183.656 491.12C185.336 491.12 186.562 490.6 187.336 489.56C188.136 488.52 188.536 487.133 188.536 485.4V479.8C188.536 478.067 188.136 476.68 187.336 475.64C186.562 474.6 185.336 474.08 183.656 474.08C181.976 474.08 180.736 474.6 179.936 475.64C179.162 476.68 178.776 478.067 178.776 479.8V485.4C178.776 487.133 179.162 488.52 179.936 489.56C180.736 490.6 181.976 491.12 183.656 491.12ZM183.656 493.48C182.189 493.48 180.856 493.227 179.656 492.72C178.456 492.213 177.429 491.493 176.576 490.56C175.722 489.627 175.056 488.493 174.576 487.16C174.122 485.8 173.896 484.28 173.896 482.6C173.896 480.92 174.122 479.413 174.576 478.08C175.056 476.72 175.722 475.573 176.576 474.64C177.429 473.707 178.456 472.987 179.656 472.48C180.856 471.973 182.189 471.72 183.656 471.72C185.122 471.72 186.456 471.973 187.656 472.48C188.856 472.987 189.882 473.707 190.736 474.64C191.589 475.573 192.242 476.72 192.696 478.08C193.176 479.413 193.416 480.92 193.416 482.6C193.416 484.28 193.176 485.8 192.696 487.16C192.242 488.493 191.589 489.627 190.736 490.56C189.882 491.493 188.856 492.213 187.656 492.72C186.456 493.227 185.122 493.48 183.656 493.48ZM208.763 490.84H211.683V467.24H208.763V465.08H221.043C222.91 465.08 224.63 465.387 226.203 466C227.776 466.587 229.136 467.467 230.283 468.64C231.43 469.813 232.31 471.267 232.923 473C233.563 474.733 233.883 476.747 233.883 479.04C233.883 481.333 233.563 483.347 232.923 485.08C232.31 486.813 231.43 488.267 230.283 489.44C229.136 490.613 227.776 491.507 226.203 492.12C224.63 492.707 222.91 493 221.043 493H208.763V490.84ZM216.443 490.64H220.363C223.11 490.64 225.176 489.907 226.563 488.44C227.95 486.973 228.643 484.827 228.643 482V476.08C228.643 473.253 227.95 471.107 226.563 469.64C225.176 468.173 223.11 467.44 220.363 467.44H216.443V490.64ZM244.985 493.48C242.905 493.48 241.331 492.973 240.265 491.96C239.225 490.92 238.705 489.507 238.705 487.72C238.705 485.693 239.425 484.16 240.865 483.12C242.305 482.08 244.651 481.56 247.905 481.56H250.785V478.84C250.785 477.213 250.425 475.973 249.705 475.12C248.985 474.267 247.851 473.84 246.305 473.84C244.998 473.84 244.011 474.027 243.345 474.4V474.56C243.638 474.693 243.905 474.933 244.145 475.28C244.411 475.6 244.545 476.053 244.545 476.64C244.545 477.387 244.318 477.987 243.865 478.44C243.438 478.893 242.811 479.12 241.985 479.12C241.291 479.12 240.705 478.893 240.225 478.44C239.771 477.96 239.545 477.32 239.545 476.52C239.545 475.907 239.718 475.32 240.065 474.76C240.438 474.173 240.971 473.653 241.665 473.2C242.358 472.747 243.198 472.387 244.185 472.12C245.198 471.853 246.358 471.72 247.665 471.72C250.171 471.72 252.065 472.307 253.345 473.48C254.625 474.653 255.265 476.293 255.265 478.4V490.88H257.985V492.68C257.611 492.893 257.131 493.08 256.545 493.24C255.958 493.4 255.331 493.48 254.665 493.48C253.438 493.48 252.531 493.173 251.945 492.56C251.385 491.92 251.105 491.107 251.105 490.12V489.92H250.905C250.718 490.373 250.478 490.813 250.185 491.24C249.891 491.64 249.505 492.013 249.025 492.36C248.571 492.707 248.011 492.973 247.345 493.16C246.678 493.373 245.891 493.48 244.985 493.48ZM246.745 490.68C247.918 490.68 248.878 490.4 249.625 489.84C250.398 489.28 250.785 488.36 250.785 487.08V483.52H248.385C246.491 483.52 245.171 483.827 244.425 484.44C243.678 485.053 243.305 485.933 243.305 487.08V487.84C243.305 488.8 243.611 489.52 244.225 490C244.838 490.453 245.678 490.68 246.745 490.68ZM268.34 493.32C266.82 493.32 265.753 493 265.14 492.36C264.526 491.72 264.22 490.707 264.22 489.32V474.52H261.5V472.2H262.18C263.166 472.2 263.846 472.027 264.22 471.68C264.593 471.333 264.9 470.827 265.14 470.16L266.38 466.64H268.7V472.2H273.7V474.52H268.7V490.72H273.7V492.48C273.246 492.693 272.513 492.88 271.5 493.04C270.513 493.227 269.46 493.32 268.34 493.32ZM283.713 493.48C281.633 493.48 280.059 492.973 278.993 491.96C277.953 490.92 277.433 489.507 277.433 487.72C277.433 485.693 278.153 484.16 279.593 483.12C281.033 482.08 283.379 481.56 286.633 481.56H289.513V478.84C289.513 477.213 289.153 475.973 288.433 475.12C287.713 474.267 286.579 473.84 285.033 473.84C283.726 473.84 282.739 474.027 282.073 474.4V474.56C282.366 474.693 282.633 474.933 282.873 475.28C283.139 475.6 283.273 476.053 283.273 476.64C283.273 477.387 283.046 477.987 282.593 478.44C282.166 478.893 281.539 479.12 280.713 479.12C280.019 479.12 279.433 478.893 278.953 478.44C278.499 477.96 278.273 477.32 278.273 476.52C278.273 475.907 278.446 475.32 278.793 474.76C279.166 474.173 279.699 473.653 280.393 473.2C281.086 472.747 281.926 472.387 282.913 472.12C283.926 471.853 285.086 471.72 286.393 471.72C288.899 471.72 290.793 472.307 292.073 473.48C293.353 474.653 293.993 476.293 293.993 478.4V490.88H296.713V492.68C296.339 492.893 295.859 493.08 295.273 493.24C294.686 493.4 294.059 493.48 293.393 493.48C292.166 493.48 291.259 493.173 290.673 492.56C290.113 491.92 289.833 491.107 289.833 490.12V489.92H289.633C289.446 490.373 289.206 490.813 288.913 491.24C288.619 491.64 288.233 492.013 287.753 492.36C287.299 492.707 286.739 492.973 286.073 493.16C285.406 493.373 284.619 493.48 283.713 493.48ZM285.473 490.68C286.646 490.68 287.606 490.4 288.353 489.84C289.126 489.28 289.513 488.36 289.513 487.08V483.52H287.113C285.219 483.52 283.899 483.827 283.153 484.44C282.406 485.053 282.033 485.933 282.033 487.08V487.84C282.033 488.8 282.339 489.52 282.953 490C283.566 490.453 284.406 490.68 285.473 490.68ZM311.599 490.84H314.519V467.24H311.599V465.08H332.959V472.12H329.319V467.44H319.279V477.96H326.079V475.12H328.719V483.16H326.079V480.32H319.279V490.84H322.999V493H311.599V490.84ZM345.795 491.12C347.475 491.12 348.701 490.6 349.475 489.56C350.275 488.52 350.675 487.133 350.675 485.4V479.8C350.675 478.067 350.275 476.68 349.475 475.64C348.701 474.6 347.475 474.08 345.795 474.08C344.115 474.08 342.875 474.6 342.075 475.64C341.301 476.68 340.915 478.067 340.915 479.8V485.4C340.915 487.133 341.301 488.52 342.075 489.56C342.875 490.6 344.115 491.12 345.795 491.12ZM345.795 493.48C344.328 493.48 342.995 493.227 341.795 492.72C340.595 492.213 339.568 491.493 338.715 490.56C337.861 489.627 337.195 488.493 336.715 487.16C336.261 485.8 336.035 484.28 336.035 482.6C336.035 480.92 336.261 479.413 336.715 478.08C337.195 476.72 337.861 475.573 338.715 474.64C339.568 473.707 340.595 472.987 341.795 472.48C342.995 471.973 344.328 471.72 345.795 471.72C347.261 471.72 348.595 471.973 349.795 472.48C350.995 472.987 352.021 473.707 352.875 474.64C353.728 475.573 354.381 476.72 354.835 478.08C355.315 479.413 355.555 480.92 355.555 482.6C355.555 484.28 355.315 485.8 354.835 487.16C354.381 488.493 353.728 489.627 352.875 490.56C352.021 491.493 350.995 492.213 349.795 492.72C348.595 493.227 347.261 493.48 345.795 493.48ZM369.245 493.48C366.712 493.48 364.912 492.84 363.845 491.56C362.779 490.253 362.245 488.307 362.245 485.72V475.4L359.525 474.88V473.12L366.725 471.72V485.48C366.725 487.213 367.059 488.48 367.725 489.28C368.392 490.08 369.445 490.48 370.885 490.48C371.419 490.48 371.939 490.413 372.445 490.28C372.979 490.12 373.445 489.893 373.845 489.6C374.272 489.28 374.605 488.893 374.845 488.44C375.112 487.987 375.245 487.44 375.245 486.8V475.4L372.525 474.88V473.12L379.725 471.72V489.8L382.445 490.32V492.08L375.365 493.48V489.76H375.165C375.005 490.213 374.752 490.667 374.405 491.12C374.085 491.573 373.672 491.973 373.165 492.32C372.685 492.667 372.112 492.947 371.445 493.16C370.805 493.373 370.072 493.48 369.245 493.48ZM386.64 490.84H389.36V475.4L386.64 474.88V473.12L393.72 471.72V475.44H393.92C394.08 474.987 394.32 474.533 394.64 474.08C394.986 473.627 395.4 473.227 395.88 472.88C396.386 472.533 396.96 472.253 397.6 472.04C398.266 471.827 399.013 471.72 399.84 471.72C402.373 471.72 404.173 472.373 405.24 473.68C406.306 474.96 406.84 476.893 406.84 479.48V490.84H409.56V493H399.72V490.84H402.36V479.72C402.36 477.987 402.026 476.72 401.36 475.92C400.693 475.12 399.64 474.72 398.2 474.72C397.666 474.72 397.133 474.8 396.6 474.96C396.093 475.093 395.626 475.32 395.2 475.64C394.8 475.933 394.466 476.307 394.2 476.76C393.96 477.213 393.84 477.76 393.84 478.4V490.84H396.48V493H386.64V490.84ZM422.297 493.48C421.017 493.48 419.857 493.24 418.817 492.76C417.777 492.253 416.897 491.533 416.177 490.6C415.457 489.667 414.897 488.533 414.497 487.2C414.097 485.84 413.897 484.307 413.897 482.6C413.897 480.893 414.097 479.373 414.497 478.04C414.897 476.68 415.457 475.533 416.177 474.6C416.897 473.667 417.777 472.96 418.817 472.48C419.857 471.973 421.017 471.72 422.297 471.72C423.871 471.72 425.124 472.08 426.057 472.8C427.017 473.52 427.711 474.36 428.137 475.32H428.337V466.28L425.617 465.76V464L432.817 462.6V489.8L435.537 490.32V492.08L428.337 493.48V489.88H428.137C427.711 490.84 427.017 491.68 426.057 492.4C425.097 493.12 423.844 493.48 422.297 493.48ZM423.697 490.6C424.284 490.6 424.857 490.52 425.417 490.36C425.977 490.173 426.471 489.907 426.897 489.56C427.351 489.213 427.697 488.8 427.937 488.32C428.204 487.84 428.337 487.293 428.337 486.68V478.52C428.337 477.907 428.204 477.36 427.937 476.88C427.697 476.4 427.351 475.987 426.897 475.64C426.471 475.293 425.977 475.04 425.417 474.88C424.857 474.693 424.284 474.6 423.697 474.6C422.177 474.6 420.964 475.12 420.057 476.16C419.151 477.2 418.697 478.64 418.697 480.48V484.72C418.697 486.56 419.151 488 420.057 489.04C420.964 490.08 422.177 490.6 423.697 490.6Z" fill="#989898"/>
<defs>
<linearGradient id="paint0_linear_2_846" x1="307" y1="81" x2="306.5" y2="223.75" gradientUnits="userSpaceOnUse">
<stop stop-color="#FFF8BB"/>
<stop offset="1" stop-color="#DCD9C1" stop-opacity="0"/>
</linearGradient>
</defs>
</svg>
