<svg width="420" height="341" viewBox="0 0 420 341" fill="none" xmlns="http://www.w3.org/2000/svg">
<g filter="url(#filter0_d_513_5039)">
<path d="M5.21559 68.1853C1.8469 68.7168 -0.454223 71.8803 0.0759809 75.2522L25.5483 237.247C26.0786 240.62 29.2396 242.923 32.6083 242.392L150.475 223.823C153.844 223.293 156.145 220.129 155.615 216.757L134.338 81.4469L95.1906 54.0111L5.21559 68.1853Z" fill="white"/>
<path d="M104.336 86.1739L134.339 81.447L95.1914 54.0111L99.7203 82.8103C100.067 85.0153 102.133 86.5209 104.336 86.1739Z" fill="#D8D7D5"/>
<path d="M95.0664 54.0303L99.5944 82.8295C99.9181 84.884 101.688 86.3491 103.702 86.3491C103.918 86.3491 104.135 86.3326 104.354 86.2977L134.358 81.5718L134.463 81.4276L134.319 81.323L104.316 86.0498C104.109 86.082 103.904 86.0976 103.702 86.0976C101.81 86.0976 100.146 84.7206 99.8429 82.7909L95.315 53.9918L95.171 53.8871L95.0664 54.0303Z" fill="#232221"/>
<path d="M73.0602 184.16L70.8985 170.415L85.0501 168.185L87.2118 181.931L73.0602 184.16ZM70.2941 163.843C69.6456 159.716 69.4375 156.343 69.6704 153.725C69.9034 151.108 70.7627 148.607 72.2504 146.222C73.1015 144.798 74.1177 143.527 75.3036 142.408C76.4876 141.291 77.5588 140.136 78.5191 138.944C79.4766 137.756 80.2406 136.468 80.8129 135.089C81.3833 133.708 81.5099 132.004 81.1907 129.974C80.6524 126.548 79.3317 124.3 77.2296 123.232C75.1284 122.166 72.7841 121.836 70.1987 122.244C66.4934 122.828 64.1052 124.263 63.033 126.545C61.9589 128.83 61.5226 131.748 61.7235 135.3L48.201 137.431C47.6621 134.004 47.7309 130.802 48.4094 127.827C49.0869 124.854 50.3033 122.225 52.0573 119.94C53.8102 117.658 56.0548 115.763 58.7912 114.256C61.5247 112.75 64.6399 111.721 68.1351 111.171C75.6832 109.982 81.8823 110.583 86.7349 112.972C91.5866 115.362 94.5573 120.019 95.6468 126.945C95.999 129.184 96.0788 131.178 95.889 132.929C95.6982 134.678 95.2552 136.308 94.5628 137.814C93.8685 139.322 92.9504 140.775 91.8104 142.173C90.6686 143.573 89.3598 145.033 87.8804 146.556C86.5294 147.989 85.4628 149.286 84.6786 150.447C83.8945 151.611 83.3442 152.792 83.0324 153.986C82.7196 155.183 82.5894 156.405 82.6417 157.65C82.6939 158.897 82.8425 160.29 83.0846 161.828L70.2941 163.843Z" fill="#D8D7D5"/>
<path d="M139.535 171.969C155.137 187.32 173.284 208.034 190.147 234.797C201.878 253.415 210.574 271.131 217.065 286.72C202.11 293.456 187.156 300.192 172.201 306.928L133.754 175.967L139.535 171.969Z" fill="#FABA1A"/>
<path d="M111.194 161.379L139.957 170.377C147.838 182.888 152.389 193.97 155.061 201.677C167.505 237.573 163.514 270.421 162.386 279.703C162.386 279.703 162.367 279.862 158.741 306.928H27.2324C26.7971 297.118 26.881 283.55 29.1953 267.634C31.9396 248.762 34.4872 231.242 45.8931 212C50.5312 204.176 66.6686 179.139 97.6132 166.032C103.132 163.695 107.904 162.253 111.194 161.379Z" fill="#FABA1A"/>
<path d="M43.5394 216.183C59.5489 221.324 79.9358 226.37 103.895 228.827C126.213 231.117 145.888 230.571 161.834 229.073C162.29 232.838 162.748 236.603 163.205 240.367C146.176 241.758 125.923 242.178 103.264 240.194C77.8805 237.972 55.8897 233.297 38.0264 228.275C39.8642 224.244 41.7017 220.214 43.5394 216.183Z" fill="#F25D26"/>
<path d="M163.73 248.344C163.426 241.284 162.672 233.444 161.171 225.13L165.314 211.497C167.556 212.104 169.845 212.596 172.175 212.968L163.73 248.344Z" fill="#F0AD0E"/>
<path d="M149.743 306.928H136.314L156.392 240.858C158.716 240.714 160.989 240.549 163.205 240.368C162.749 236.603 162.291 232.838 161.834 229.074C161.202 229.132 160.564 229.19 159.92 229.247L161.171 225.13C162.672 233.444 163.426 241.284 163.73 248.344L149.743 306.928Z" fill="#F0AD0E"/>
<path d="M156.392 240.858L159.92 229.247C160.564 229.19 161.202 229.132 161.834 229.074C162.291 232.838 162.748 236.603 163.205 240.368C160.988 240.549 158.716 240.714 156.392 240.858Z" fill="#F27E14"/>
<path d="M113.738 287.895L119.317 286.158L132.104 292.775L135.328 284.948L119.1 278.701L112.476 281.808L113.738 287.895Z" fill="#E4A012"/>
<path d="M27.1018 292.071C27.0771 292.065 27.052 292.059 27.0273 292.052L27.1602 290.201C27.1377 290.831 27.1183 291.455 27.1018 292.071Z" fill="#F1D066"/>
<path d="M95.9721 300.553C88.8606 300.553 81.3023 300.286 73.3571 299.651C55.6826 298.238 40.1236 295.327 27.1016 292.07C27.1181 291.455 27.1374 290.831 27.16 290.201L27.9277 279.498C28.4017 279.659 28.8832 279.82 29.3715 279.984C35.5412 282.043 49.226 287.653 64.7276 289.807C97.0525 294.298 114.998 295.42 114.998 295.42L115.059 293.998C115.059 295.969 115.059 297.94 115.059 299.911C109.135 300.31 102.756 300.553 95.9721 300.553Z" fill="#F0AD0E"/>
<path d="M122.81 182.066H122.809C114.677 180.671 109.215 172.94 110.609 164.801L116.041 133.083L145.491 138.136L140.058 169.854C138.664 177.994 130.941 183.462 122.81 182.066Z" fill="#F79994"/>
<path d="M141.579 160.976L124.139 147.756C124.042 149.451 123.768 157.423 129.663 163.997C133.427 168.194 137.878 169.783 139.958 170.377L141.579 160.976Z" fill="#F35B5F"/>
<path d="M117.047 123.138C117.037 122.643 115.904 121.698 115.559 121.383C114.978 120.849 114.329 120.39 113.631 120.022C112.277 119.308 110.717 118.923 109.183 119.003C106.131 119.161 103.098 121.173 102.08 124.109C101.488 125.815 101.575 127.701 102.045 129.445C102.75 132.067 104.31 134.439 106.391 136.179C108.116 137.622 110.189 138.631 112.373 139.15C112.81 139.255 117.351 139.943 117.348 139.764C117.247 134.222 117.147 128.68 117.047 123.138Z" fill="#F79994"/>
<path d="M112.959 122.737C112.893 125.163 112.785 138.001 122.473 148.785C124.258 150.772 136.123 163.98 149.633 160.922C166.992 156.992 169.886 130.092 170.024 128.632C170.492 123.697 171.868 109.159 161.345 99.4264C152.757 91.4837 141.863 91.9381 140.314 92.0272C138.682 92.1217 128.252 92.891 120.424 101.62C113.319 109.542 113.067 118.766 112.959 122.737Z" fill="#F79994"/>
<path d="M160.841 127.039C160.737 129.161 162.072 130.95 163.822 131.035C165.572 131.121 167.074 129.47 167.177 127.349C167.281 125.227 165.945 123.438 164.196 123.353C162.446 123.267 160.943 124.918 160.841 127.039Z" fill="#232221"/>
<path d="M153.955 129.506L156.142 133.882C156.197 133.992 156.221 134.103 156.222 134.215C156.22 134.513 156.045 134.797 155.747 134.912L152.836 136.053C152.434 136.211 152.236 136.666 152.393 137.068C152.55 137.47 153.004 137.668 153.406 137.511L156.317 136.369C157.234 136.008 157.786 135.133 157.785 134.215C157.785 133.868 157.706 133.512 157.541 133.182L155.354 128.806C155.161 128.419 154.691 128.263 154.305 128.456C153.919 128.65 153.763 129.12 153.955 129.506Z" fill="#232221"/>
<path d="M133.759 134.787C133.644 137.167 135.478 139.191 137.856 139.307C140.234 139.423 142.256 137.586 142.372 135.206C142.488 132.826 140.653 130.802 138.275 130.686C135.897 130.57 133.875 132.406 133.759 134.787Z" fill="#F35B5F"/>
<path d="M113.972 133.601C114.015 133.393 114.137 132.756 114.137 131.885C114.137 130.5 113.829 128.471 112.376 126.613C110.517 124.247 108.015 123.685 107.318 123.547C106.894 123.464 106.483 123.742 106.401 124.167C106.319 124.591 106.596 125.001 107.019 125.084C107.577 125.189 109.657 125.672 111.145 127.579C112.316 129.073 112.572 130.719 112.573 131.885C112.573 132.614 112.472 133.136 112.441 133.285C112.354 133.709 112.626 134.123 113.049 134.21C113.472 134.297 113.885 134.024 113.972 133.601Z" fill="#232221"/>
<path d="M112.149 127.023C112.026 126.982 111.489 126.809 110.741 126.807C110.021 126.805 109.078 126.979 108.215 127.638C107.494 128.187 107.092 128.874 106.872 129.44C106.651 130.006 106.603 130.473 106.589 130.621C106.551 131.051 106.868 131.431 107.298 131.47C107.728 131.508 108.108 131.191 108.146 130.76C108.153 130.687 108.184 130.381 108.329 130.008C108.475 129.636 108.722 129.219 109.163 128.882C109.689 128.482 110.254 128.374 110.741 128.372C111.239 128.371 111.628 128.497 111.644 128.505C112.053 128.643 112.497 128.425 112.637 128.016C112.776 127.607 112.558 127.162 112.149 127.023Z" fill="#232221"/>
<path d="M166.871 133.67C167.694 133.709 168.443 133.99 169.077 134.422C168.596 136.69 167.892 139.419 166.876 142.268C166.734 142.275 166.597 142.297 166.452 142.29C164.073 142.174 162.239 140.151 162.355 137.77C162.47 135.389 164.493 133.553 166.871 133.67Z" fill="#F35B5F"/>
<path d="M143.341 122.996L146.164 126.203L142.118 127.63C141.711 127.773 141.497 128.22 141.64 128.628C141.784 129.035 142.231 129.249 142.638 129.106L147.777 127.294C148.021 127.208 148.209 127.004 148.274 126.753C148.339 126.502 148.275 126.233 148.104 126.039L144.515 121.962C144.229 121.638 143.735 121.607 143.411 121.892C143.087 122.178 143.056 122.672 143.341 122.996Z" fill="#232221"/>
<path d="M142.377 145.473L155.298 146.947C155.263 146.682 154.697 142.862 151.63 141.474C148.624 140.112 144.387 141.619 142.377 145.473Z" fill="white"/>
<path d="M113.096 119.762C113.808 120.04 115.486 120.802 116.822 122.599C118.052 124.255 118.347 125.923 118.434 126.686C131.835 125.413 139.571 121.643 144.231 118.249C144.231 118.249 144.571 118.001 154.395 110.531C155.978 112.239 158.457 114.529 161.966 116.494C165.147 118.277 168.093 119.186 170.249 119.674C177.292 118.034 182.202 112.767 182.366 107.267C182.537 101.475 177.394 97.091 173.744 95.2687C170.598 93.6989 168.349 93.9247 165.641 94.1515C163.221 94.3534 160.434 94.5554 156.312 93.4749C149.272 91.6288 149.534 88.9766 142.934 87.3756C140.939 86.8909 132.651 84.8804 124.322 89.2695C117.298 92.9718 111.732 100.442 111.178 109.056C110.875 113.771 112.152 117.574 113.096 119.762Z" fill="#232221"/>
<path d="M111.195 161.379C99.3769 164.076 77.269 170.889 56.6753 189.328C56.6753 189.328 35.9205 207.912 21.7653 242.374C20.5113 245.427 19.1084 248.65 17.5592 255.425C16.3583 260.677 15.8177 265.52 15.6411 269.749C15.5089 272.911 17.455 275.787 20.4264 276.866C23.036 277.815 26.0415 278.872 29.3718 279.984C35.5415 282.043 49.2263 287.653 64.7279 289.807C97.0529 294.298 114.999 295.42 114.999 295.42L117.349 239.567L74.6212 234.153L111.195 161.379Z" fill="#FABA1A"/>
<path d="M145.284 190.226C150.647 208.997 153.969 224.711 156.07 236.17C156.116 236.419 156.355 236.584 156.604 236.539C156.853 236.493 157.018 236.253 156.973 236.004C154.867 224.523 151.539 208.778 146.166 189.973C146.096 189.73 145.842 189.589 145.599 189.658C145.355 189.728 145.215 189.982 145.284 190.226Z" fill="#232221"/>
<path d="M82.9716 225.924C81.671 225.696 80.3834 225.461 79.1104 225.221L85.225 213.054L82.9716 225.924Z" fill="#F0AD0E"/>
<path d="M81.3814 235.01L74.6211 234.153L79.1105 225.221C80.3835 225.461 81.6712 225.696 82.9717 225.924L81.3814 235.01Z" fill="#F27E14"/>
<path d="M80.3695 240.791H65.8584L89.8327 186.731L85.2249 213.054L79.1103 225.22L74.6208 234.153L81.3812 235.01L80.3695 240.791Z" fill="#F0AD0E"/>
<path d="M142.086 306.928L129.136 303.255L157.399 203.409L170.349 207.082L142.086 306.928Z" fill="#4E52AD"/>
<path d="M116.414 252.719C116.414 252.719 140.71 250.297 143.3 251.097C145.89 251.896 154.756 256.919 156.008 258.353C157.261 259.786 157.709 261.129 157.53 262.473C157.351 263.817 155.561 265.34 155.561 265.34C156.964 267.526 157.012 269.025 156.713 270.037C156.18 271.847 154.059 273.736 154.039 273.76C154.196 274.32 154.372 275.123 154.42 276.1C154.466 277.028 154.557 278.897 153.636 280.604C152.267 283.136 149.451 283.859 148.834 284.003C148.834 284.003 149.923 286.032 148.491 287.734C147.059 289.436 142.764 291.586 137.663 290.87C132.561 290.153 119.316 283.614 119.316 283.614L115.059 284.948L116.414 252.719Z" fill="#F79994"/>
<path d="M182.78 202.889C176.616 202.889 170.687 201.891 165.141 200.046C160.118 193.901 155.145 188.241 150.315 183.052L146.899 161.328C147.801 161.262 148.713 161.13 149.633 160.922C166.991 156.992 169.885 130.092 170.024 128.632C170.201 126.763 170.508 123.516 170.25 119.674C177.292 118.034 182.202 112.767 182.366 107.267C182.537 101.476 177.394 97.0911 173.743 95.2688C171.714 94.2562 170.057 93.9909 168.41 93.9909C167.505 93.9909 166.603 94.0708 165.641 94.1516C165.086 94.1974 164.512 94.2443 163.908 94.2746C169.802 92.1585 176.158 91.0046 182.78 91.0046C212.998 91.0046 237.616 115.01 238.636 145.009H230.956C230.41 145.009 229.881 145.083 229.38 145.223C226.894 145.912 225.069 148.193 225.069 150.902V183.523C214.821 195.383 199.676 202.889 182.78 202.889Z" fill="#EAF8FB"/>
<path d="M150.314 183.052C147.841 180.395 145.405 177.86 143.019 175.446C142.059 173.789 141.04 172.097 139.958 170.38C139.995 170.206 140.028 170.03 140.058 169.854L141.573 161.008L141.577 160.983C142.859 161.237 144.177 161.379 145.521 161.379C145.977 161.379 146.436 161.362 146.899 161.328L150.314 183.052Z" fill="#E4F4F7"/>
<path d="M165.141 200.046C160.462 198.489 156.058 196.331 152.02 193.661C149.818 188.333 146.902 182.151 143.021 175.447C145.406 177.86 147.842 180.395 150.316 183.052C155.145 188.241 160.119 193.901 165.141 200.046Z" fill="#E2D87C"/>
<path d="M152.019 193.661C145.693 189.479 140.265 184.041 136.091 177.707C137.987 175.741 139.366 173.235 139.958 170.38C141.041 172.097 142.06 173.789 143.02 175.447C146.901 182.151 149.818 188.333 152.019 193.661Z" fill="#E2D87C"/>
<path d="M136.091 177.707C133.275 173.434 131.03 168.752 129.463 163.77C129.529 163.846 129.596 163.922 129.663 163.997C133.427 168.194 137.878 169.783 139.958 170.377L141.574 161.008L140.059 169.854C140.028 170.03 139.995 170.206 139.959 170.38C139.366 173.235 137.988 175.74 136.091 177.707Z" fill="#E4C6C8"/>
<path d="M139.958 170.377C137.878 169.783 133.427 168.194 129.663 163.997C129.596 163.922 129.529 163.847 129.463 163.77C128.419 160.456 127.677 157.011 127.267 153.461C130.756 156.425 135.805 159.84 141.578 160.983L141.574 161.008L139.958 170.377Z" fill="#E7A6AA"/>
<path d="M145.521 161.379C144.177 161.379 142.859 161.238 141.577 160.983C135.804 159.84 130.755 156.425 127.266 153.461C127.018 151.325 126.891 149.15 126.891 146.947C126.891 138.857 128.608 131.167 131.694 124.224C137.407 122.527 141.391 120.318 144.23 118.249C144.23 118.249 144.571 118.001 154.395 110.531C155.978 112.239 158.457 114.529 161.966 116.494C165.147 118.277 168.093 119.186 170.249 119.674C170.507 123.516 170.2 126.763 170.023 128.632C169.885 130.092 166.991 156.992 149.632 160.922C148.712 161.13 147.801 161.262 146.899 161.328C146.436 161.362 145.977 161.379 145.521 161.379ZM149.274 140.982C146.698 140.982 143.899 142.555 142.377 145.473L155.297 146.947C155.263 146.682 154.697 142.862 151.63 141.474C150.901 141.144 150.098 140.982 149.274 140.982ZM166.656 133.664C164.372 133.664 162.466 135.461 162.354 137.77C162.238 140.151 164.072 142.174 166.451 142.29C166.47 142.291 166.489 142.291 166.509 142.291C166.633 142.291 166.753 142.274 166.876 142.268C167.891 139.419 168.595 136.69 169.077 134.422C168.442 133.99 167.693 133.709 166.87 133.669C166.799 133.666 166.728 133.664 166.656 133.664ZM138.061 130.681C135.777 130.681 133.871 132.478 133.759 134.787C133.644 137.167 135.478 139.191 137.856 139.307C137.927 139.311 137.998 139.313 138.069 139.313C140.354 139.313 142.259 137.516 142.372 135.206C142.488 132.826 140.653 130.802 138.275 130.686C138.204 130.682 138.132 130.681 138.061 130.681ZM154.654 128.373C154.536 128.373 154.417 128.4 154.304 128.456C153.918 128.65 153.762 129.12 153.955 129.506L156.141 133.882C156.196 133.993 156.22 134.104 156.221 134.216C156.219 134.513 156.044 134.797 155.746 134.912L152.835 136.054C152.433 136.211 152.235 136.666 152.392 137.068C152.513 137.376 152.808 137.566 153.12 137.566C153.216 137.566 153.312 137.548 153.405 137.511L156.316 136.369C157.234 136.009 157.786 135.133 157.785 134.216C157.785 133.869 157.705 133.512 157.54 133.182L155.353 128.806C155.217 128.532 154.941 128.373 154.654 128.373ZM164.066 123.35C162.372 123.35 160.942 124.971 160.841 127.04C160.737 129.161 162.072 130.95 163.822 131.036C163.865 131.037 163.909 131.038 163.952 131.038C165.646 131.039 167.076 129.418 167.177 127.349C167.281 125.227 165.946 123.438 164.196 123.353C164.153 123.351 164.109 123.35 164.066 123.35ZM143.341 122.997L146.164 126.203L142.117 127.63C141.71 127.773 141.496 128.22 141.639 128.628C141.753 128.949 142.055 129.151 142.377 129.151C142.463 129.151 142.551 129.136 142.637 129.106L147.776 127.294C148.02 127.208 148.208 127.004 148.273 126.753C148.338 126.502 148.274 126.233 148.103 126.039L144.515 121.962C144.36 121.787 144.144 121.697 143.928 121.697C143.743 121.697 143.559 121.761 143.41 121.892C143.087 122.178 143.055 122.673 143.341 122.997Z" fill="#E4C6C8"/>
<path d="M163.952 131.038C163.908 131.038 163.865 131.037 163.822 131.036C162.072 130.95 160.737 129.161 160.841 127.039C160.941 124.971 162.372 123.35 164.066 123.35C164.109 123.35 164.152 123.351 164.196 123.353C165.945 123.438 167.281 125.227 167.177 127.349C167.076 129.418 165.646 131.039 163.952 131.038Z" fill="#74878C"/>
<path d="M153.121 137.565C152.809 137.565 152.514 137.376 152.393 137.068C152.236 136.666 152.434 136.211 152.836 136.053L155.747 134.912C156.045 134.797 156.22 134.513 156.222 134.216C156.221 134.104 156.197 133.992 156.142 133.882L153.955 129.506C153.763 129.12 153.919 128.65 154.305 128.456C154.418 128.4 154.537 128.373 154.654 128.373C154.941 128.373 155.217 128.532 155.354 128.806L157.541 133.182C157.706 133.512 157.785 133.869 157.785 134.216C157.786 135.133 157.234 136.008 156.317 136.369L153.406 137.511C153.313 137.548 153.216 137.565 153.121 137.565Z" fill="#74878C"/>
<path d="M138.069 139.312C137.998 139.312 137.927 139.311 137.856 139.307C135.478 139.191 133.644 137.167 133.759 134.787C133.871 132.478 135.777 130.681 138.061 130.681C138.132 130.681 138.204 130.682 138.275 130.686C140.653 130.802 142.488 132.826 142.372 135.206C142.259 137.516 140.354 139.312 138.069 139.312Z" fill="#E7A6AA"/>
<path d="M166.509 142.292C166.49 142.292 166.471 142.291 166.452 142.29C164.073 142.174 162.239 140.151 162.355 137.77C162.467 135.461 164.373 133.664 166.657 133.664C166.729 133.664 166.799 133.666 166.871 133.669C167.694 133.709 168.443 133.99 169.077 134.422C168.596 136.69 167.892 139.419 166.876 142.268C166.753 142.274 166.633 142.292 166.509 142.292Z" fill="#E7A6AA"/>
<path d="M142.378 129.151C142.056 129.151 141.754 128.949 141.64 128.628C141.497 128.22 141.711 127.773 142.118 127.63L146.164 126.203L143.341 122.996C143.056 122.672 143.087 122.178 143.411 121.892C143.56 121.761 143.744 121.697 143.928 121.697C144.145 121.697 144.36 121.787 144.515 121.962L148.104 126.039C148.275 126.233 148.339 126.502 148.274 126.753C148.209 127.004 148.021 127.208 147.777 127.294L142.638 129.106C142.552 129.136 142.464 129.151 142.378 129.151Z" fill="#74878C"/>
<path d="M155.298 146.947L142.377 145.473C143.899 142.555 146.699 140.982 149.274 140.982C150.098 140.982 150.901 141.144 151.63 141.474C154.697 142.862 155.263 146.682 155.298 146.947Z" fill="#EAF8FB"/>
<path d="M131.694 124.224C137.868 110.339 149.521 99.4392 163.908 94.2745C164.513 94.2442 165.087 94.1973 165.642 94.1514C166.603 94.0707 167.505 93.9908 168.411 93.9908C170.058 93.9908 171.714 94.2561 173.744 95.2687C177.394 97.091 182.537 101.475 182.366 107.267C182.203 112.767 177.292 118.034 170.249 119.674C168.093 119.186 165.147 118.277 161.967 116.494C158.458 114.529 155.979 112.239 154.396 110.531C144.571 118.001 144.231 118.248 144.231 118.248C141.391 120.318 137.407 122.526 131.694 124.224Z" fill="#74878C"/>
<path d="M182.78 202.889C151.914 202.889 126.891 177.843 126.891 146.947C126.891 116.051 151.914 91.0045 182.78 91.0045C213.647 91.0045 238.67 116.051 238.67 146.947C238.67 177.843 213.647 202.889 182.78 202.889ZM182.78 80.0874C145.89 80.0874 115.984 110.021 115.984 146.947C115.984 183.872 145.89 213.806 182.78 213.806C219.671 213.806 249.576 183.872 249.576 146.947C249.576 110.021 219.671 80.0874 182.78 80.0874Z" fill="#4E52AD"/>
<path d="M155.688 264.662C155.687 264.662 155.552 264.637 155.301 264.588C154.422 264.415 152.152 263.953 149.619 263.307C147.088 262.663 144.282 261.826 142.383 260.94C140.137 259.894 138.601 259.086 137.631 258.543C137.147 258.272 136.804 258.066 136.585 257.93C136.475 257.862 136.396 257.812 136.346 257.779L136.292 257.743L136.278 257.735C135.966 257.519 135.537 257.598 135.323 257.912C135.107 258.225 135.186 258.654 135.5 258.869C135.538 258.895 137.253 260.07 141.803 262.189C144.152 263.28 147.536 264.223 150.36 264.91C153.181 265.596 155.427 266.014 155.436 266.016C155.809 266.086 156.169 265.839 156.238 265.465C156.308 265.092 156.061 264.732 155.688 264.662Z" fill="#232221"/>
<path d="M154.109 273.075C154.109 273.075 153.953 273.059 153.664 273.026C152.655 272.912 150.059 272.59 147.273 272.038C144.493 271.49 141.501 270.686 139.807 269.704C137.729 268.508 136.328 267.526 135.453 266.848C135.014 266.509 134.708 266.248 134.515 266.073C134.418 265.986 134.349 265.921 134.306 265.88L134.261 265.835L134.252 265.825L134.225 265.852L134.252 265.826V265.825L134.225 265.852L134.252 265.826C133.99 265.551 133.554 265.54 133.28 265.802C133.005 266.065 132.994 266.501 133.256 266.776C133.307 266.829 134.865 268.447 139.121 270.897C140.259 271.55 141.735 272.077 143.331 272.525C148.107 273.861 153.952 274.442 153.972 274.445C154.35 274.483 154.686 274.207 154.725 273.829C154.762 273.45 154.486 273.113 154.109 273.075Z" fill="#232221"/>
<path d="M150.648 282.681C146.296 282.509 143.045 281.54 140.777 280.609C138.884 279.833 136.718 278.685 135.036 277.734C134.194 277.258 133.471 276.832 132.961 276.525C132.705 276.371 132.503 276.248 132.364 276.162C132.226 276.078 132.154 276.032 132.153 276.032C131.831 275.83 131.407 275.928 131.206 276.25C131.004 276.573 131.101 276.998 131.423 277.199C131.441 277.208 136.289 280.253 140.255 281.883C142.642 282.864 146.064 283.88 150.593 284.057C150.973 284.072 151.293 283.776 151.308 283.396C151.323 283.016 151.027 282.696 150.648 282.681Z" fill="#232221"/>
<path d="M116.414 252.718L115.059 284.947L119.316 283.613L117.951 252.569L116.414 252.718Z" fill="#F35B5F"/>
<path d="M87.7326 189.91C87.7326 189.911 82.3141 201.834 76.8956 214.077C74.1854 220.199 71.4761 226.399 69.4419 231.233C68.4257 233.649 67.5773 235.723 66.9821 237.278C66.684 238.056 66.4492 238.704 66.286 239.205C66.2044 239.456 66.1411 239.67 66.0961 239.851C66.0521 240.035 66.0218 240.173 66.02 240.329C66.0228 240.402 66.02 240.483 66.0815 240.614C66.1594 240.762 66.2521 240.818 66.3218 240.861C66.4566 240.935 66.574 240.965 66.7216 240.999C67.2215 241.105 68.0607 241.167 69.2374 241.211C70.4086 241.253 71.898 241.272 73.6241 241.272C87.6482 241.272 117.365 240.026 117.368 240.026L117.349 239.567L116.891 239.548L114.541 295.401L114.999 295.42L115.028 294.962C115.026 294.962 114.416 294.924 113.315 294.849C109.459 294.584 99.6023 293.873 89.0175 292.805C78.4364 291.739 67.1142 290.314 60.3773 288.639C52.6343 286.716 44.3308 284.245 37.9656 282.255C34.7828 281.26 32.0844 280.385 30.1824 279.76C28.2801 279.134 27.178 278.758 27.1748 278.758C26.9351 278.676 26.6747 278.804 26.593 279.044C26.5113 279.284 26.6395 279.545 26.8792 279.627C26.8857 279.629 44.6142 285.669 60.1563 289.53C67.9708 291.47 81.6528 293.051 93.4079 294.155C105.159 295.258 114.967 295.879 114.97 295.879C115.092 295.886 115.215 295.844 115.306 295.761C115.397 295.679 115.452 295.562 115.457 295.44L117.807 239.587C117.812 239.459 117.764 239.333 117.673 239.243C117.583 239.152 117.457 239.104 117.33 239.108C117.324 239.109 115.473 239.186 112.468 239.303C103.456 239.654 84.1099 240.354 73.6241 240.354C71.5284 240.354 69.7858 240.326 68.5605 240.262C67.9488 240.23 67.4645 240.189 67.1435 240.141C66.9839 240.118 66.8638 240.092 66.8051 240.072L66.7748 240.062L66.773 240.061L66.6272 240.342L66.9023 240.204C66.8335 240.081 66.7776 240.068 66.773 240.061L66.6272 240.342L66.9023 240.204L66.6519 240.329H66.9372C66.9344 240.328 66.9454 240.301 66.9023 240.204L66.6519 240.329H66.9372C66.9353 240.327 66.9482 240.218 66.9858 240.073C67.1298 239.488 67.5856 238.225 68.2606 236.523C70.6259 230.547 75.706 218.981 80.19 208.919C82.4333 203.887 84.5272 199.23 86.0616 195.83C86.8283 194.13 87.4547 192.746 87.8894 191.785C88.3251 190.825 88.5672 190.291 88.5681 190.29C88.6727 190.059 88.5709 189.787 88.3407 189.682C88.1096 189.577 87.8381 189.679 87.7326 189.91Z" fill="#232221"/>
<path d="M185.83 107.337C185.484 108.108 185.431 109.01 185.751 109.864C186.395 111.583 188.308 112.453 190.025 111.809C193.144 110.637 196.522 110.143 199.794 110.38C203.451 110.645 206.251 111.745 207.595 112.378C209.189 113.128 212.505 114.688 214.978 118.094C218.42 122.838 218.133 128.388 217.849 130.554C217.611 132.374 218.892 134.042 220.71 134.281C222.528 134.519 224.196 133.234 224.432 131.417C224.912 127.745 225.02 120.625 220.349 114.188C216.874 109.4 212.351 107.272 210.419 106.363C208.269 105.351 204.763 104.078 200.274 103.752C196.053 103.446 191.702 104.08 187.692 105.586C186.828 105.91 186.179 106.557 185.83 107.337Z" fill="white"/>
<path d="M69.2692 184.775C61.1391 192.009 50.6983 202.813 41.1682 217.784C31.3827 233.154 25.9636 247.567 22.8671 258.173C22.7962 258.417 22.9355 258.671 23.1785 258.743C23.4217 258.814 23.6764 258.674 23.7474 258.431C26.8255 247.886 32.2134 233.558 41.9417 218.277C51.4162 203.394 61.7958 192.653 69.8782 185.461C70.0671 185.292 70.0845 185.002 69.9167 184.813C69.7479 184.623 69.4581 184.607 69.2692 184.775Z" fill="white"/>
<path d="M226.599 306.928H127.337C123.465 306.928 120.326 303.787 120.326 299.912V295.421H226.599V306.928Z" fill="#4381CB"/>
<path d="M300.65 306.928H192.355C188.103 306.928 185.077 303.289 185.596 298.801L193.781 228.118C194.301 223.63 198.169 219.991 202.422 219.991H310.716C314.969 219.991 317.996 223.63 317.476 228.118L309.291 298.801C308.772 303.289 304.903 306.928 300.65 306.928Z" fill="#4381CB"/>
<path d="M311.105 306.928H202.811C198.558 306.928 195.532 303.289 196.051 298.801L204.236 228.118C204.756 223.63 208.624 219.991 212.877 219.991H321.171C325.424 219.991 328.451 223.63 327.931 228.118L319.746 298.801C319.227 303.289 315.358 306.928 311.105 306.928Z" fill="#5891D4"/>
<path d="M327.931 232.182L319.746 299.22C319.746 299.22 320.113 306.928 307.495 306.928C294.877 306.928 236.623 306.928 236.623 306.928C244.252 306.879 270.968 305.779 295.508 285.668C319.999 265.596 326.368 239.668 327.931 232.182Z" fill="#7CBAE8"/>
<path d="M325.238 240.655C322.798 248.562 316.868 264.045 302.657 278.505C288.641 292.768 273.514 298.964 265.685 301.573C265.445 301.652 265.315 301.912 265.395 302.153C265.475 302.393 265.735 302.524 265.975 302.443C273.883 299.809 289.154 293.554 303.311 279.148C317.662 264.545 323.649 248.912 326.114 240.926C326.189 240.683 326.053 240.426 325.811 240.352C325.569 240.277 325.312 240.412 325.238 240.655Z" fill="#232221"/>
<path d="M262.015 270.535H258.229L260.642 255.168H264.428L262.015 270.535Z" fill="#FABA1A"/>
<path d="M266.983 270.535H263.198L264.861 259.939H268.647L266.983 270.535Z" fill="#FABA1A"/>
<path d="M155.994 89.13C150.494 92.2366 136.614 101.034 127.502 118.787C120.968 131.519 119.605 143.563 119.605 151.661C119.605 154.823 119.814 157.385 120.003 159.151C120.029 159.402 120.256 159.585 120.507 159.558C120.759 159.531 120.942 159.305 120.914 159.053C120.728 157.31 120.523 154.783 120.523 151.661C120.523 143.664 121.869 131.773 128.318 119.206C137.309 101.685 151.02 92.993 156.446 89.9296C156.666 89.8047 156.744 89.5247 156.619 89.3044C156.495 89.0832 156.215 89.0051 155.994 89.13Z" fill="#232221"/>
<path d="M163.353 275.709L161.223 260.678C161.187 260.428 160.955 260.253 160.705 260.288C160.454 260.324 160.279 260.556 160.315 260.808L162.444 275.838C162.48 276.089 162.712 276.263 162.963 276.228C163.213 276.193 163.388 275.96 163.353 275.709Z" fill="#232221"/>
<path d="M372.843 260.77H230.957C227.705 260.77 225.069 258.131 225.069 254.876V150.901C225.069 147.647 227.705 145.009 230.957 145.009H372.843C376.095 145.009 378.73 147.647 378.73 150.901V254.876C378.73 258.131 376.095 260.77 372.843 260.77Z" fill="white"/>
<path d="M378.73 158.402H225.069V150.901C225.069 148.193 226.894 145.912 229.38 145.223C229.882 145.083 230.411 145.009 230.957 145.009H372.843C373.389 145.009 373.918 145.083 374.42 145.223C376.905 145.912 378.73 148.193 378.73 150.901V158.402Z" fill="#E7E7E6"/>
<path d="M233.061 152.407C233.061 153.414 232.244 154.231 231.237 154.231C230.231 154.231 229.415 153.414 229.415 152.407C229.415 151.399 230.231 150.582 231.237 150.582C232.244 150.582 233.061 151.399 233.061 152.407Z" fill="white"/>
<path d="M238.822 152.407C238.822 153.414 238.006 154.231 236.999 154.231C235.993 154.231 235.177 153.414 235.177 152.407C235.177 151.399 235.993 150.582 236.999 150.582C238.006 150.582 238.822 151.399 238.822 152.407Z" fill="white"/>
<path d="M244.711 152.407C244.711 153.414 243.895 154.231 242.889 154.231C241.882 154.231 241.065 153.414 241.065 152.407C241.065 151.399 241.882 150.582 242.889 150.582C243.895 150.582 244.711 151.399 244.711 152.407Z" fill="white"/>
<path d="M340.134 240.368H270.529C268.069 240.368 266.075 238.372 266.075 235.91V185.907V178.402C266.075 175.94 268.069 173.944 270.529 173.944H314.057C316.517 173.944 318.51 175.94 318.51 178.402V185.907H340.134C342.594 185.907 344.588 187.903 344.588 190.364V235.91C344.588 238.372 342.594 240.368 340.134 240.368Z" fill="#E7E7E6"/>
<path d="M314.1 196.391L305.33 205.168L296.561 196.391L291.27 201.688L300.039 210.465L291.27 219.243L296.561 224.54L305.33 215.762L314.1 224.54L319.392 219.243L310.622 210.465L319.392 201.688L314.1 196.391Z" fill="#D8D7D5"/>
<path d="M230.957 145.134H372.843C374.435 145.134 375.874 145.779 376.917 146.823C377.96 147.867 378.605 149.308 378.605 150.901V254.876L378.731 255.001L378.856 254.876V150.901C378.856 147.577 376.163 144.882 372.843 144.882H230.957L230.831 145.008L230.957 145.134Z" fill="#232221"/>
<path d="M390.223 326.5H9.77691C4.37719 326.5 0 322.118 0 316.714C0 311.31 4.37719 306.928 9.77691 306.928H390.223C395.623 306.928 400 311.31 400 316.714C400 322.118 395.623 326.5 390.223 326.5Z" fill="#04B0A8"/>
<path d="M368.125 198.229L365.879 180.328L384.308 178.012L386.554 195.913L368.125 198.229ZM365.361 171.787C364.686 166.413 364.553 162.033 364.961 158.651C365.369 155.268 366.583 152.062 368.608 149.031C369.767 147.22 371.137 145.614 372.719 144.211C374.298 142.812 375.733 141.358 377.026 139.854C378.314 138.351 379.357 136.715 380.153 134.949C380.948 133.183 381.181 130.98 380.85 128.337C380.29 123.875 378.67 120.908 375.989 119.44C373.308 117.973 370.284 117.45 366.918 117.874C362.092 118.48 358.94 120.243 357.457 123.158C355.973 126.074 355.29 129.839 355.407 134.45L337.796 136.664C337.236 132.201 337.454 128.055 338.454 124.228C339.452 120.402 341.135 117.044 343.5 114.155C345.864 111.268 348.849 108.902 352.456 107.06C356.06 105.219 360.139 104.012 364.691 103.44C374.52 102.204 382.529 103.234 388.722 106.527C394.912 109.822 398.575 115.976 399.706 124.996C400.072 127.912 400.096 130.499 399.779 132.759C399.461 135.02 398.822 137.113 397.862 139.038C396.901 140.964 395.654 142.81 394.12 144.575C392.584 146.342 390.828 148.182 388.85 150.096C387.041 151.898 385.606 153.536 384.543 155.009C383.48 156.485 382.719 157.994 382.267 159.53C381.812 161.067 381.595 162.646 381.613 164.261C381.63 165.879 381.766 167.691 382.018 169.694L365.361 171.787Z" fill="#F25D26"/>
<path d="M336.113 53.7099C336.113 79.7835 314.995 100.92 288.947 100.92C262.899 100.92 241.781 79.7835 241.781 53.7099C241.781 27.6364 262.899 6.49995 288.947 6.49995C314.995 6.49995 336.113 27.6364 336.113 53.7099Z" fill="white"/>
<path d="M288.946 92.0215C267.807 92.0215 250.671 74.8683 250.671 53.7098C250.671 32.5514 267.807 15.3982 288.946 15.3982C310.085 15.3982 327.221 32.5514 327.221 53.7098C327.221 74.8683 310.085 92.0215 288.946 92.0215Z" fill="#E7E7E6"/>
<path d="M290.208 57.9199H287.685V26.7468H290.208V57.9199Z" fill="#D8D7D5"/>
<path d="M306.421 65.6976L305.159 67.8853L287.685 57.7861L288.947 55.5985L306.421 65.6976Z" fill="#D8D7D5"/>
</g>
<defs>
<filter id="filter0_d_513_5039" x="0" y="0.5" width="420" height="340" filterUnits="userSpaceOnUse" color-interpolation-filters="sRGB">
<feFlood flood-opacity="0" result="BackgroundImageFix"/>
<feColorMatrix in="SourceAlpha" type="matrix" values="0 0 0 0 0 0 0 0 0 0 0 0 0 0 0 0 0 0 127 0" result="hardAlpha"/>
<feOffset dx="10" dy="4"/>
<feGaussianBlur stdDeviation="5"/>
<feComposite in2="hardAlpha" operator="out"/>
<feColorMatrix type="matrix" values="0 0 0 0 0 0 0 0 0 0 0 0 0 0 0 0 0 0 0.06 0"/>
<feBlend mode="normal" in2="BackgroundImageFix" result="effect1_dropShadow_513_5039"/>
<feBlend mode="normal" in="SourceGraphic" in2="effect1_dropShadow_513_5039" result="shape"/>
</filter>
</defs>
</svg>
